<svg width="20" height="21" viewBox="0 0 20 21" xmlns="http://www.w3.org/2000/svg"><title>App Store Icon Line</title><g fill="#000" fill-rule="evenodd"><path d="M10.048 20.172c5.274 0 9.55-4.33 9.55-9.672 0-5.342-4.276-9.672-9.55-9.672C4.775.828.5 5.158.5 10.5c0 5.342 4.275 9.672 9.548 9.672zm0-.847c4.81 0 8.712-3.95 8.712-8.825 0-4.874-3.9-8.825-8.712-8.825-4.81 0-8.71 3.95-8.71 8.825 0 4.874 3.9 8.825 8.71 8.825z"/><path d="M7.892 11.232h4.427l-.754-1.31H8.65l-.758 1.31zm-2.043 0H4.113v-1.31h2.488l-.753 1.31zm8.528 0h1.68v-1.31h-2.42l.74 1.31zM12.61 11.255L9.49 5.852c-.18-.315-.073-.726.245-.91.32-.184.726-.074.91.244l3.12 5.403-1.154.665zm.116.2l.67 1.162 1.155-.665-.67-1.162-1.154.665zm.898 1.26c.057-.096.665-.48.78-.48.115 0 1.065.095 1.065 1.675.018.27-.172 1.272-.362 1.253-.152.02 0-.52-.476-.79-.475-.27-.964-.804-1.065-1.137-.076-.25 0-.424.057-.52zM5.28 12.655l2.83-4.903 1.154.665-2.83 4.904-1.154-.665zm-.108.204l-.575 2.287 1.714-1.63-1.138-.658zm3.055-5.31l.338-.584c.18-.31.588-.422.906-.24.322.187.43.59.248.906l-.338.585-1.153-.666z"/></g></svg>